<svg height="422" viewBox="0 0 781 422" width="781" xmlns="http://www.w3.org/2000/svg"> <g fill="black" fill-rule="evenodd" transform="translate(-.0006)"> <path d="m152.338 289.336v71.025h40.155v-71.025c0-11.58 8.726-25.122 24.576-25.852.006 0 9.949-.026 9.949-.026l.042-41.296-14.924.067c-39.264 1.179-59.798 35.52-59.798 67.107zm149.847 33.58c-18.669 0-33.857-15.191-33.857-33.864 0-18.674 15.188-33.865 33.857-33.865s33.857 15.191 33.857 33.865c0 18.673-15.188 33.864-33.857 33.864zm0-104.896c-39.159 0-71.017 31.864-71.017 71.032s31.858 71.032 71.017 71.032 71.017-31.864 71.017-71.032-31.858-71.032-71.017-71.032zm-230.244 105.743c-16.952 0-30.232-14.723-30.232-33.518 0-19.22 13.28-34.276 30.232-34.276 16.669 0 30.23 15.376 30.23 34.276 0 18.482-13.561 33.518-30.23 33.518zm0-105.224c-39.863 0-69.923 30.718-69.923 71.454 0 38.982 29.33 70.696 65.381 70.696 12.904 0 25.162-3.912 34.767-11.057-.188 16.03-5.814 34.692-30.982 34.692-7.529 0-20.108-3.326-23.906-12.489 0 0-.364-.828-.553-1.888 0 0-2.312-.035-2.283-.006h-40.057l.71 3.625c5.178 28.223 32.354 47.935 66.089 47.935 43.441 0 70.427-28.055 70.427-73.219v-58.289c0-40.736-29.952-71.454-69.67-71.454zm519.085 102.81c-17.554 0-32.381-15.47-32.381-33.785 0-19.461 14.32-34.715 32.611-34.715 17.854 0 32.386 15.367 32.386 34.254 0 18.882-14.63 34.246-32.616 34.246zm0-106.587c-40.389 0-73.254 32.449-73.254 72.341v114.032h39.583v-49.758c10.027 5.138 21.39 8.062 33.437 8.062 41.338 0 73.72-32.185 73.72-73.271 0-38.708-33.653-71.406-73.486-71.406zm-123.065 11.983.013 66.711c-.077 3.122-.665 6.262-1.713 9.222-.046.126-.097.25-.145.376-.209.567-.433 1.128-.676 1.68-.181.406-.381.803-.58 1.199-.134.268-.261.539-.403.802-.347.641-.717 1.271-1.114 1.881-.012.018-.023.038-.035.057-3.452 5.279-8.683 9.228-15.279 10.088-.054.007-.104.022-.157.028-.817.1-1.654.151-2.51.153-.018 0-.034.003-.051.003-.018 0-.034-.003-.051-.003-.857-.002-1.694-.053-2.51-.153-.054-.006-.104-.021-.158-.028-6.596-.86-11.827-4.809-15.279-10.088-.012-.019-.023-.039-.035-.057-.397-.61-.767-1.24-1.115-1.881-.141-.263-.268-.534-.402-.802-.199-.396-.398-.793-.58-1.199-.243-.552-.467-1.113-.676-1.68-.047-.126-.099-.25-.145-.376-1.047-2.96-1.636-6.1-1.713-9.222l.014-66.711-.056-4.945h-40.158v71.025c0 19.425 7.745 36.943 20.094 49.232l.012.029c.092.094.19.179.282.272.226.221.456.437.685.656 10.592 10.209 23.873 16.117 38.232 16.956.127.007.252.021.38.027 1.049.055 2.103.087 3.162.087h.016.001.016c1.059 0 2.113-.032 3.162-.087.128-.006.253-.02.38-.027 14.36-.839 27.641-6.747 38.233-16.957.229-.218.458-.434.684-.655.092-.092.19-.178.283-.272l.012-.029c12.348-12.289 20.093-29.807 20.093-49.232v-71.025h-40.158zm-395.027-90.437-31.557-79.994h-41.377l46.408 117.215c5.441 13.612 15.281 21.417 26.989 21.417 16.517 0 24.237-15.3 26.789-21.89l44.272-116.742h-40.944zm432.572-44.926c17.986 0 32.617 15.364 32.617 34.246 0 18.886-14.533 34.254-32.386 34.254-18.292 0-32.613-15.255-32.613-34.716 0-18.314 14.828-33.784 32.382-33.784zm0 106.587c39.833 0 73.486-32.699 73.486-71.407 0-41.086-32.382-73.271-73.72-73.271-12.048 0-23.41 2.924-33.438 8.062v-49.758h-39.584v114.033c0 39.891 32.868 72.341 73.256 72.341zm152.414 40.031h43.876l78.654-181.686h-46.344l-27.619 74.016-25.35-74.016h-46.017l49.156 121.603zm-501.418-43.054h40.639v-138.224h-40.639zm430.641 0h40.639v-181.682h-40.639zm-204.382 0h40.159v-71.024c0-37.092-28.202-67.26-62.868-67.26-16.157 0-31.152 6.349-42.752 17.998-11.598-11.649-26.597-17.998-42.758-17.998-34.661 0-62.863 30.168-62.863 67.26v71.024h40.155v-71.024c0-12.561 8.681-26.12 22.708-26.12 13.783 0 22.353 12.905 22.664 25.487l-.013 66.712.055 4.945h40.158v-71.024l-.019-.734c.322-12.481 8.887-25.386 22.665-25.386 14.025 0 22.709 13.559 22.709 26.12z"></path> <path d="m690.728 318.683c11.586 0 20.979 9.394 20.979 20.983s-9.393 20.984-20.979 20.984-20.979-9.395-20.979-20.984 9.393-20.983 20.979-20.983zm-513.837-318.683c11.586 0 20.979 9.395 20.979 20.984 0 11.59-9.393 20.984-20.979 20.984-11.587 0-20.979-9.394-20.979-20.984 0-11.589 9.392-20.984 20.979-20.984z" opacity=".5"></path> </g> </svg>